<?xml version="1.0" encoding="UTF-8" standalone="no"?>
<!DOCTYPE svg PUBLIC "-//W3C//DTD SVG 1.1//EN" "http://www.w3.org/Graphics/SVG/1.1/DTD/svg11.dtd">
<svg xmlns="http://www.w3.org/2000/svg" version="1.1" viewBox="0.00 0.00 200.00 200.00">
<path fill="#ffffff" d="
  M 0.00 93.83
  L 0.00 93.26
  Q 18.06 63.86 35.70 34.47
  Q 38.19 30.31 43.78 30.35
  Q 57.39 30.42 63.42 30.36
  A 0.31 0.31 0.0 0 1 63.69 30.83
  L 57.40 41.28
  A 0.99 0.99 0.0 0 1 56.56 41.75
  L 47.80 41.75
  A 1.36 1.34 15.2 0 0 46.64 42.40
  L 15.95 93.31
  A 0.73 0.73 0.0 0 0 15.95 94.07
  L 46.07 145.04
  A 0.69 0.68 74.6 0 0 46.66 145.38
  L 56.11 145.38
  A 1.00 1.00 0.0 0 1 56.97 145.87
  L 63.68 157.22
  A 0.28 0.28 0.0 0 1 63.44 157.64
  Q 48.80 157.58 44.49 157.70
  Q 40.94 157.80 38.10 156.29
  Q 36.48 155.43 34.02 151.23
  Q 17.22 122.54 0.00 93.83
  Z"
/>
<path fill="#ffffff" d="
  M 200.00 93.88
  L 200.00 94.14
  Q 182.24 123.48 164.76 152.99
  Q 161.87 157.87 156.49 157.93
  Q 142.09 158.10 135.65 157.95
  A 0.29 0.29 0.0 0 1 135.41 157.52
  Q 137.60 153.70 141.21 147.63
  Q 142.51 145.43 144.72 145.84
  L 153.36 145.49
  L 184.04 94.61
  A 0.85 0.83 -45.6 0 0 184.04 93.76
  L 153.98 42.89
  A 1.07 1.07 0.0 0 0 153.06 42.37
  L 144.64 42.37
  A 2.33 2.31 -15.0 0 1 142.63 41.22
  L 136.77 31.32
  A 0.30 0.30 0.0 0 1 137.03 30.87
  Q 149.68 30.89 156.45 30.85
  C 162.77 30.81 164.29 34.42 167.71 40.13
  Q 183.78 66.95 200.00 93.88
  Z"
/>
<path fill="#ffffff" d="
  M 87.85 76.51
  A 17.98 17.98 0.0 0 1 69.87 94.49
  A 17.98 17.98 0.0 0 1 51.89 76.51
  A 17.98 17.98 0.0 0 1 69.87 58.53
  A 17.98 17.98 0.0 0 1 87.85 76.51
  Z
  M 59.11 65.22
  C 56.25 68.00 54.17 72.30 54.45 76.37
  A 0.74 0.73 88.4 0 0 55.17 77.06
  Q 63.98 77.22 70.58 77.26
  Q 70.61 77.26 70.73 77.15
  Q 70.86 77.02 70.86 76.99
  Q 70.98 70.39 71.05 61.58
  A 0.74 0.73 3.1 0 0 70.38 60.84
  C 66.31 60.46 61.96 62.43 59.11 65.22
  Z"
/>
<path fill="#ffffff" d="
  M 132.2497 58.9291
  A 18.02 17.81 -84.3 0 1 148.1819 78.6289
  A 18.02 17.81 -84.3 0 1 128.6703 94.7909
  A 18.02 17.81 -84.3 0 1 112.7381 75.0911
  A 18.02 17.81 -84.3 0 1 132.2497 58.9291
  Z
  M 119.40 65.67
  C 116.53 68.52 114.46 72.89 114.77 77.03
  A 0.75 0.74 87.9 0 0 115.51 77.72
  Q 124.44 77.81 131.14 77.79
  Q 131.17 77.79 131.30 77.66
  Q 131.42 77.55 131.42 77.51
  Q 131.49 70.82 131.48 61.88
  A 0.75 0.74 2.6 0 0 130.80 61.14
  C 126.66 60.79 122.28 62.83 119.40 65.67
  Z"
/>
<path fill="#ffffff" d="
  M 99.58 123.12
  C 109.76 123.16 120.99 118.60 126.44 109.62
  C 128.09 106.90 130.23 102.98 133.73 105.34
  C 137.64 107.97 134.14 113.20 131.93 115.95
  C 124.13 125.65 111.95 131.29 99.55 131.25
  C 87.15 131.21 75.00 125.48 67.27 115.73
  C 65.08 112.97 61.61 107.72 65.54 105.11
  C 69.06 102.78 71.17 106.71 72.81 109.45
  C 78.20 118.46 89.39 123.09 99.58 123.12
  Z"
/>
</svg>
